<?xml version="1.0" encoding="UTF-8" standalone="no"?>
<!-- Generator: Adobe Illustrator 16.0.0, SVG Export Plug-In . SVG Version: 6.00 Build 0)  -->

<svg
   xmlns:dc="http://purl.org/dc/elements/1.1/"
   xmlns:cc="http://creativecommons.org/ns#"
   xmlns:rdf="http://www.w3.org/1999/02/22-rdf-syntax-ns#"
   xmlns:svg="http://www.w3.org/2000/svg"
   xmlns="http://www.w3.org/2000/svg"
   xmlns:sodipodi="http://sodipodi.sourceforge.net/DTD/sodipodi-0.dtd"
   xmlns:inkscape="http://www.inkscape.org/namespaces/inkscape"
   version="1.1"
   id="Layer_1"
   x="0px"
   y="0px"
   width="1740.217"
   height="1733.26"
   viewBox="0 0 1740.217 1733.26"
   enable-background="new 0 0 1280 800"
   xml:space="preserve"
   sodipodi:docname="CDLogo.svg"
   inkscape:version="0.92.0 r15299"><metadata
     id="metadata35"><rdf:RDF><cc:Work
         rdf:about=""><dc:format>image/svg+xml</dc:format><dc:type
           rdf:resource="http://purl.org/dc/dcmitype/StillImage" /><dc:title></dc:title></cc:Work></rdf:RDF></metadata><defs
     id="defs33" /><sodipodi:namedview
     pagecolor="#ffffff"
     bordercolor="#666666"
     borderopacity="1"
     objecttolerance="10"
     gridtolerance="10"
     guidetolerance="10"
     inkscape:pageopacity="0"
     inkscape:pageshadow="2"
     inkscape:window-width="1920"
     inkscape:window-height="1017"
     id="namedview31"
     showgrid="false"
     units="px"
     inkscape:zoom="0.259375"
     inkscape:cx="1199.0361"
     inkscape:cy="400"
     inkscape:window-x="-8"
     inkscape:window-y="-8"
     inkscape:window-maximized="1"
     inkscape:current-layer="Layer_1" /><g
     id="g28"
     transform="translate(-28.117,-21.76149)"><linearGradient
       id="SVGID_1_"
       gradientUnits="userSpaceOnUse"
       x1="321.46341"
       y1="-475.59961"
       x2="1301.1514"
       y2="-475.59961"
       gradientTransform="matrix(1,0,0,-1,84,776)"><stop
         offset="0"
         style="stop-color:#112277"
         id="stop2" /><stop
         offset="1"
         style="stop-color:#575966"
         id="stop4" /></linearGradient><polyline
       stroke-miterlimit="10"
       points="442.658,1086.506    442.658,1410.472 1347.957,1410.472 1347.957,1055.533  "
       id="polyline7"
       style="fill:none;stroke:url(#SVGID_1_);stroke-width:74.3884964;stroke-miterlimit:10" /><linearGradient
       id="SVGID_2_"
       gradientUnits="userSpaceOnUse"
       x1="291.3501"
       y1="734.31348"
       x2="1301.1514"
       y2="734.31348"
       gradientTransform="matrix(1,0,0,1.381,84,-801.7861)"><stop
         offset="0"
         style="stop-color:#112277"
         id="stop9" /><stop
         offset="1"
         style="stop-color:#575966"
         id="stop11" /></linearGradient><polyline
       stroke-miterlimit="10"
       points="412.544,417.011    412.544,58.956 1347.957,58.956 1347.957,398.766  "
       id="polyline14"
       style="fill:none;stroke:url(#SVGID_2_);stroke-width:74.3884964;stroke-miterlimit:10" /><g
       id="g24"><g
         id="g18"><path
           d="m 455.832,1199.054 c -62.535,0 -121.595,-13.68 -175.443,-40.609 C 228.714,1132.615 183.4,1097.799 145.695,1055.023 108.71,1013.114 79.539,964.911 59.095,911.856 38.538,858.588 28.117,803.145 28.117,747.2 c 0,-56.965 9.732,-112.91 28.952,-166.109 19.36,-53.635 47.302,-102.127 83.013,-143.962 36.446,-42.701 80.599,-77.369 131.186,-102.916 52.688,-26.639 110.701,-40.174 172.516,-40.174 92.969,0 169.327,20.195 226.937,59.999 54.608,37.785 97.563,86.926 127.746,146.064 l 47.551,93.295 -199.545,73.535 -38.217,-71.215 c -16.899,-31.414 -37.634,-53.127 -63.474,-66.301 -29.817,-15.197 -62.896,-22.583 -100.999,-22.583 -31.705,0 -58.232,6.085 -81.102,18.604 -25.801,14.19 -46.754,31.777 -64.129,53.78 -18.526,23.444 -32.424,49.359 -42.484,79.251 -10.062,29.897 -15.204,59.786 -15.204,88.74 0,31.992 5.649,61.521 17.298,90.323 12.122,29.968 28.011,55.661 48.563,78.536 19.795,22.003 42.484,39.082 69.373,52.185 24.866,12.162 50.957,18.089 79.723,18.089 13.61,0 29.964,-2.453 48.785,-7.238 18.382,-4.636 35.829,-11.571 51.899,-20.481 15.923,-8.898 30.253,-19.541 42.593,-31.556 7.419,-7.235 9.265,-12.23 10.027,-15.414 l 22.941,-95.679 212.794,63.979 -30.325,90.903 c -13.282,39.741 -34.742,75.346 -63.839,105.748 -26.129,27.362 -56.595,50.594 -90.397,68.976 -32.207,17.511 -66.515,30.974 -101.98,39.951 -35.395,8.958 -69.912,13.524 -102.487,13.524 z"
           id="path16"
           inkscape:connector-curvature="0"
           style="fill:#112277" /></g><g
         id="g22"><path
           d="m 1355.341,1199.054 c -62.533,0 -121.596,-13.68 -175.478,-40.609 -51.647,-25.83 -96.947,-60.646 -134.659,-103.422 -37.017,-41.909 -66.159,-90.112 -86.602,-143.167 -20.549,-53.268 -31.015,-108.711 -31.015,-164.656 0,-59.063 10.067,-116.098 29.935,-169.583 19.938,-53.775 48.526,-102.058 84.929,-143.451 36.843,-41.981 80.846,-75.929 130.718,-100.826 52.147,-26.06 109.36,-39.305 170.118,-39.305 42.312,0 82.444,6.446 119.314,19.11 24.866,8.542 48.818,19.33 71.586,32.137 V 22.256 h 212.716 v 950.689 h 21.431 v 218.219 l -98.293,-5.645 c -40.93,-2.386 -77.043,-20.485 -101.939,-51.104 -3.807,2.391 -7.605,4.785 -11.435,7.093 -30.369,18.394 -62.795,32.647 -96.198,42.417 -34.339,10.064 -69.66,15.129 -105.128,15.129 z m -12.054,-692.226 c -30.354,0 -56.199,5.867 -78.922,17.88 -25.547,13.604 -46.831,30.901 -65.069,52.831 -18.845,22.804 -33.006,48.354 -43.249,78.101 -10.377,30.182 -15.662,61.014 -15.662,91.56 0,31.991 5.64,61.521 17.3,90.324 12.12,29.967 28.003,55.659 48.562,78.536 19.758,22.002 42.488,39.081 69.332,52.186 24.905,12.16 50.962,18.086 79.768,18.086 15.701,0 34.453,-3.975 55.693,-11.712 23.709,-8.695 45.711,-20.271 65.539,-34.454 18.495,-13.321 33.47,-28.231 45.847,-45.742 9.59,-13.537 11.409,-23.378 11.768,-29.823 V 634.004 c -6.007,-12.882 -13.864,-25.263 -23.888,-37.493 -14.622,-17.878 -31.703,-33.799 -50.669,-47.189 -18.889,-13.318 -39.554,-24.102 -61.373,-31.922 -19.617,-7.022 -38.143,-10.572 -54.977,-10.572 z"
           id="path20"
           inkscape:connector-curvature="0"
           style="fill:#575966" /></g></g><text
       transform="translate(848.6504,1755.0215)"
       font-size="278.9568"
       letter-spacing="27"
       id="text26"
       style="font-size:278.95678711px;font-family:Raleway-Thin;letter-spacing:27;fill:#ffffff">B2B</text>
</g></svg>