<?xml version="1.0" encoding="utf-8"?>
<!-- Generator: Adobe Illustrator 16.0.0, SVG Export Plug-In . SVG Version: 6.00 Build 0)  -->
<!DOCTYPE svg PUBLIC "-//W3C//DTD SVG 1.1//EN" "http://www.w3.org/Graphics/SVG/1.1/DTD/svg11.dtd">
<svg version="1.1" id="Layer_1" xmlns="http://www.w3.org/2000/svg" xmlns:xlink="http://www.w3.org/1999/xlink" x="0px" y="0px"
	 width="520px" height="219px" viewBox="0 0 520 219" enable-background="new 0 0 520 219" xml:space="preserve">
<g>
	<g>
		<g>
			<g>
				<path fill="#293072" d="M57.291,157.922c-6.807,0-13.231-1.486-19.093-4.418c-5.622-2.81-10.55-6.595-14.649-11.25
					c-4.029-4.564-7.202-9.808-9.425-15.577c-2.237-5.8-3.371-11.829-3.371-17.917c0-6.202,1.06-12.284,3.149-18.074
					c2.105-5.837,5.145-11.109,9.034-15.666c3.965-4.647,8.769-8.418,14.274-11.199c5.73-2.897,12.043-4.368,18.77-4.368
					c10.113,0,18.42,2.198,24.69,6.529c5.941,4.111,10.615,9.457,13.897,15.893l5.177,10.151l-21.71,7.997l-4.161-7.744
					c-1.837-3.418-4.096-5.78-6.906-7.215c-3.246-1.656-6.841-2.462-10.988-2.462c-3.452,0-6.337,0.664-8.825,2.03
					c-2.808,1.541-5.089,3.452-6.978,5.845c-2.015,2.555-3.526,5.376-4.622,8.625c-1.096,3.255-1.654,6.508-1.654,9.659
					c0,3.482,0.617,6.695,1.883,9.827c1.318,3.258,3.046,6.05,5.284,8.541c2.154,2.398,4.622,4.256,7.547,5.683
					c2.707,1.322,5.543,1.964,8.676,1.964c1.477,0,3.261-0.263,5.305-0.782c2-0.508,3.902-1.262,5.647-2.236
					c1.734-0.965,3.293-2.12,4.635-3.43c0.806-0.786,1.008-1.331,1.089-1.675l2.497-10.409l23.155,6.955l-3.302,9.892
					c-1.443,4.325-3.781,8.198-6.946,11.508c-2.844,2.978-6.154,5.503-9.833,7.505c-3.503,1.907-7.235,3.367-11.095,4.344
					C64.589,157.426,60.834,157.922,57.291,157.922z"/>
			</g>
			<g>
				<path fill="#585A67" d="M155.16,157.922c-6.806,0-13.229-1.486-19.093-4.416c-5.622-2.812-10.551-6.598-14.649-11.252
					c-4.029-4.566-7.202-9.808-9.424-15.577c-2.237-5.801-3.372-11.83-3.372-17.917c0-6.425,1.095-12.632,3.254-18.452
					c2.171-5.851,5.279-11.104,9.24-15.612c4.01-4.564,8.794-8.256,14.223-10.968c5.674-2.836,11.9-4.275,18.51-4.275
					c4.602,0,8.969,0.7,12.979,2.081c2.706,0.931,5.314,2.103,7.789,3.495V29.88h23.148v103.438h2.332v23.746l-10.697-0.613
					c-4.452-0.257-8.383-2.229-11.092-5.563c-0.411,0.265-0.825,0.521-1.243,0.774c-3.306,1.996-6.83,3.551-10.467,4.616
					C162.863,157.37,159.017,157.922,155.16,157.922z M153.849,82.603c-3.305,0-6.114,0.639-8.589,1.95
					c-2.778,1.479-5.095,3.36-7.078,5.75c-2.052,2.48-3.592,5.258-4.707,8.495c-1.133,3.286-1.707,6.637-1.707,9.962
					c0,3.48,0.617,6.695,1.884,9.829c1.318,3.256,3.046,6.051,5.283,8.539c2.154,2.398,4.622,4.256,7.547,5.683
					c2.707,1.322,5.543,1.964,8.676,1.964c1.711,0,3.75-0.429,6.059-1.276c2.579-0.943,4.976-2.203,7.132-3.748
					c2.011-1.443,3.642-3.069,4.988-4.974c1.043-1.477,1.241-2.547,1.278-3.247V96.443c-0.649-1.401-1.507-2.747-2.596-4.078
					c-1.594-1.947-3.45-3.678-5.512-5.136c-2.057-1.45-4.305-2.62-6.677-3.472C157.693,82.992,155.679,82.603,153.849,82.603z"/>
			</g>
		</g>
		<linearGradient id="SVGID_1_" gradientUnits="userSpaceOnUse" x1="51.811" y1="163.6382" x2="158.4053" y2="163.6382">
			<stop  offset="0" style="stop-color:#293072"/>
			<stop  offset="1" style="stop-color:#585A67"/>
		</linearGradient>
		<polyline fill="none" stroke="url(#SVGID_1_)" stroke-width="8.0937" stroke-miterlimit="10" points="55.858,145.673 
			55.858,180.927 154.358,180.927 154.358,142.302 		"/>
		
			<linearGradient id="SVGID_2_" gradientUnits="userSpaceOnUse" x1="48.5317" y1="-37.7432" x2="158.4053" y2="-37.7432" gradientTransform="matrix(1 0 0 -1.381 0 -1.5638)">
			<stop  offset="0" style="stop-color:#293072"/>
			<stop  offset="1" style="stop-color:#585A67"/>
		</linearGradient>
		<polyline fill="none" stroke="url(#SVGID_2_)" stroke-width="8.0937" stroke-miterlimit="10" points="52.579,72.83 52.579,33.878 
			154.358,33.878 154.358,70.846 		"/>
	</g>
	<rect x="216.095" y="54.703" fill="none" width="327.408" height="113.795"/>
	
		<text transform="matrix(1 0 0 1 235.4434 160.293)" fill="#FFFFFF" font-family="'Raleway-Thin'" font-size="144.6455" letter-spacing="14">B2B</text>
</g>
</svg>
