<?xml version="1.0" encoding="UTF-8" standalone="no"?>
<!-- Generator: Adobe Illustrator 16.0.0, SVG Export Plug-In . SVG Version: 6.00 Build 0)  -->

<svg
   xmlns:dc="http://purl.org/dc/elements/1.1/"
   xmlns:cc="http://creativecommons.org/ns#"
   xmlns:rdf="http://www.w3.org/1999/02/22-rdf-syntax-ns#"
   xmlns:svg="http://www.w3.org/2000/svg"
   xmlns="http://www.w3.org/2000/svg"
   xmlns:sodipodi="http://sodipodi.sourceforge.net/DTD/sodipodi-0.dtd"
   xmlns:inkscape="http://www.inkscape.org/namespaces/inkscape"
   version="1.1"
   id="Layer_1"
   x="0px"
   y="0px"
   width="107.258px"
   height="90.812px"
   viewBox="0 0 107.258 90.812"
   enable-background="new 0 0 107.258 90.812"
   xml:space="preserve"
   sodipodi:docname="grandesempresas.svg"
   inkscape:version="0.92.0 r15299"><metadata
     id="metadata19"><rdf:RDF><cc:Work
         rdf:about=""><dc:format>image/svg+xml</dc:format><dc:type
           rdf:resource="http://purl.org/dc/dcmitype/StillImage" /></cc:Work></rdf:RDF></metadata><defs
     id="defs17" /><sodipodi:namedview
     pagecolor="#ffffff"
     bordercolor="#666666"
     borderopacity="1"
     objecttolerance="10"
     gridtolerance="10"
     guidetolerance="10"
     inkscape:pageopacity="0"
     inkscape:pageshadow="2"
     inkscape:window-width="1920"
     inkscape:window-height="1017"
     id="namedview15"
     showgrid="false"
     inkscape:zoom="5.1975512"
     inkscape:cx="19.654494"
     inkscape:cy="36.649446"
     inkscape:window-x="-8"
     inkscape:window-y="-8"
     inkscape:window-maximized="1"
     inkscape:current-layer="Layer_1" /><circle
     style="fill:#28888c;stroke-width:1.24773955"
     id="circle4"
     r="44.090122"
     cy="45.575191"
     cx="55.206192" /><g
     id="g10"
     transform="matrix(1.2477395,0,0,1.2477395,-12.356408,-9.9704284)"><path
       style="fill:#ffffff"
       inkscape:connector-curvature="0"
       id="path6"
       d="M 43.904,20.063 V 62.647 H 58.883 V 27.403 Z m 3.791,38.844 h -1.808 v -3.178 h 1.808 z m 0,-5.396 h -1.808 v -3.178 h 1.808 z m 0,-5.397 h -1.808 v -3.178 h 1.808 z m 0,-5.396 h -1.808 v -3.18 h 1.808 z m 0,-5.397 h -1.808 v -3.18 h 1.808 z m 0,-5.396 h -1.808 v -3.18 h 1.808 z m 3.069,26.982 h -1.808 v -3.178 h 1.808 z m 0,-5.396 h -1.808 v -3.178 h 1.808 z m 0,-5.397 h -1.808 v -3.178 h 1.808 z m 0,-5.396 h -1.808 v -3.18 h 1.808 z m 0,-5.397 h -1.808 v -3.18 h 1.808 z m 0,-5.396 h -1.808 v -3.18 h 1.808 z m 3.068,26.982 h -1.809 v -3.178 h 1.809 z m 0,-5.396 h -1.809 v -3.178 h 1.809 z m 0,-5.397 h -1.809 v -3.178 h 1.809 z m 0,-5.396 h -1.809 v -3.18 h 1.809 z m 0,-5.397 h -1.809 v -3.18 h 1.809 z m 0,-5.396 h -1.809 v -3.18 h 1.809 z M 56.9,58.907 H 55.091 V 55.729 H 56.9 Z m 0,-5.396 H 55.091 V 50.333 H 56.9 Z m 0,-5.397 H 55.091 V 44.936 H 56.9 Z m 0,-5.396 h -1.809 v -3.18 H 56.9 Z m 0,-5.397 h -1.809 v -3.18 H 56.9 Z m 0,-5.396 h -1.809 v -3.18 H 56.9 Z" /><path
       style="fill:#ffffff"
       inkscape:connector-curvature="0"
       id="path8"
       d="m 60.85,40.437 v 22.211 h 9.439 V 35.812 Z m 7.05,17.851 h 1.139 v 2.004 H 67.9 Z m 0,-3.402 h 1.139 V 56.89 H 67.9 Z m 0,-3.399 h 1.139 v 2.002 H 67.9 Z m 0,-3.402 h 1.139 v 2.002 H 67.9 Z m 0,-3.402 h 1.139 v 2.002 H 67.9 Z m 0,-3.401 h 1.139 v 2.004 H 67.9 Z m -1.933,17.006 h 1.141 v 2.004 h -1.141 z m 0,-3.402 h 1.141 v 2.004 h -1.141 z m 0,-3.399 h 1.141 v 2.002 h -1.141 z m 0,-3.402 h 1.141 v 2.002 h -1.141 z m 0,-3.402 h 1.141 v 2.002 h -1.141 z m 0,-3.401 h 1.141 v 2.004 h -1.141 z m -1.934,17.006 h 1.139 v 2.004 h -1.139 z m 0,-3.402 h 1.139 v 2.004 h -1.139 z m 0,-3.399 h 1.139 v 2.002 h -1.139 z m 0,-3.402 h 1.139 v 2.002 h -1.139 z m 0,-3.402 h 1.139 v 2.002 h -1.139 z m 0,-3.401 h 1.139 v 2.004 H 64.033 Z M 62.1,58.288 h 1.139 v 2.004 H 62.1 Z m 0,-3.402 h 1.139 V 56.89 H 62.1 Z m 0,-3.399 h 1.139 v 2.002 H 62.1 Z m 0,-3.402 h 1.139 v 2.002 H 62.1 Z m 0,-3.402 h 1.139 v 2.002 H 62.1 Z m 0,-3.401 h 1.139 v 2.004 H 62.1 Z" /></g></svg>