<?xml version="1.0" encoding="UTF-8" standalone="no"?>
<!-- Generator: Adobe Illustrator 16.0.0, SVG Export Plug-In . SVG Version: 6.00 Build 0)  -->

<svg
   xmlns:dc="http://purl.org/dc/elements/1.1/"
   xmlns:cc="http://creativecommons.org/ns#"
   xmlns:rdf="http://www.w3.org/1999/02/22-rdf-syntax-ns#"
   xmlns:svg="http://www.w3.org/2000/svg"
   xmlns="http://www.w3.org/2000/svg"
   xmlns:sodipodi="http://sodipodi.sourceforge.net/DTD/sodipodi-0.dtd"
   xmlns:inkscape="http://www.inkscape.org/namespaces/inkscape"
   version="1.1"
   id="Layer_1"
   x="0px"
   y="0px"
   width="107.258px"
   height="90.812px"
   viewBox="0 0 107.258 90.812"
   enable-background="new 0 0 107.258 90.812"
   xml:space="preserve"
   sodipodi:docname="mipymes.svg"
   inkscape:version="0.92.0 r15299"><metadata
     id="metadata19"><rdf:RDF><cc:Work
         rdf:about=""><dc:format>image/svg+xml</dc:format><dc:type
           rdf:resource="http://purl.org/dc/dcmitype/StillImage" /></cc:Work></rdf:RDF></metadata><defs
     id="defs17" /><sodipodi:namedview
     pagecolor="#ffffff"
     bordercolor="#666666"
     borderopacity="1"
     objecttolerance="10"
     gridtolerance="10"
     guidetolerance="10"
     inkscape:pageopacity="0"
     inkscape:pageshadow="2"
     inkscape:window-width="1920"
     inkscape:window-height="1017"
     id="namedview15"
     showgrid="false"
     inkscape:zoom="5.1975512"
     inkscape:cx="51.568582"
     inkscape:cy="39.351032"
     inkscape:window-x="-8"
     inkscape:window-y="-8"
     inkscape:window-maximized="1"
     inkscape:current-layer="Layer_1" /><circle
     style="fill:#5b389f;fill-opacity:1;stroke-width:1.25863647"
     id="circle4"
     r="44.473919"
     cy="45.409592"
     cx="55.68259" /><g
     id="g10"
     transform="matrix(1.2586365,0,0,1.2586365,-12.827512,-10.170539)"><path
       style="fill:#ffffff"
       inkscape:connector-curvature="0"
       id="path6"
       d="m 37.558,38.449 c 0,0 0.013,-0.062 0.031,-0.153 -0.019,0.087 -0.031,0.153 -0.031,0.153 z" /><path
       style="fill:#ffffff"
       inkscape:connector-curvature="0"
       id="path8"
       d="m 55.089,24.974 c -10.445,-0.205 -19.156,8.233 -19.356,18.631 -0.095,5.071 1.788,9.88 5.308,13.537 3.518,3.654 8.25,5.721 13.322,5.818 0.124,0.002 0.245,0.004 0.368,0.004 10.274,0 18.792,-8.36 18.989,-18.636 C 73.919,33.855 65.563,25.175 55.089,24.974 Z m -0.951,4.173 c -1.328,0.695 -1.851,0.659 -2.004,0.855 -0.152,0.197 -0.695,1.404 -0.922,1.375 -0.222,-0.029 -1.127,-0.841 -0.587,-1.701 0.538,-0.859 0.839,-1.027 1.195,-1.519 0.357,-0.489 0.398,-1.31 -0.052,-1.144 -0.449,0.165 -0.672,0.111 -0.933,0.677 -0.259,0.568 -0.315,0.517 -0.506,0.973 -0.193,0.458 0.056,0.51 -0.297,0.702 -0.352,0.193 -0.989,0.429 -1.152,0.525 -0.164,0.096 -0.538,0.226 -0.589,0.212 -0.049,-0.013 -0.864,0.967 -0.551,0.86 0.314,-0.106 0.715,-0.297 0.529,0.27 -0.184,0.568 0.101,1.283 0.006,1.593 -0.092,0.308 0.781,0.849 -0.175,0.841 -0.959,-0.009 -1.427,-0.201 -1.692,0.066 -0.268,0.271 0.613,1.032 -0.184,1.104 -0.797,0.071 -1.418,0.033 -1.67,0.278 -0.252,0.244 -1.12,0.725 -1.475,1.104 -0.357,0.376 -0.126,0.965 -0.759,1.058 -0.631,0.095 -0.942,0.199 -1.116,0.682 -0.169,0.481 0.086,0.847 -0.279,1.039 -0.364,0.191 -0.106,-0.286 -0.32,-0.615 -0.221,-0.329 -0.319,-0.913 -0.511,-0.794 -0.188,0.123 0.012,-0.569 -0.603,-0.259 -0.614,0.312 -2.06,3.13 -1.062,2.813 1.001,-0.315 0.693,-0.756 1.001,-0.315 0.308,0.439 0.137,0.633 -0.231,1.03 -0.367,0.397 -0.209,0.335 0.11,0.755 0.32,0.423 0.147,0.826 0.04,1.284 -0.11,0.456 -0.213,0.689 0.159,0.696 0.372,0.007 0.186,0.535 0.588,0.495 0.398,-0.038 0.725,-0.93 1.338,-0.496 0.612,0.436 1.307,0.405 2.441,1.624 1.138,1.22 0.901,0.821 1.545,1.089 0.645,0.264 0.581,1.413 1.54,2.028 0.956,0.616 1.3,0.337 2.251,1.237 0.953,0.898 1.348,0.922 0.664,1.628 -0.684,0.707 -0.898,0.781 -0.84,1.687 0.059,0.906 -0.535,1.063 -1.135,1.494 -0.599,0.433 -1.06,0.026 -0.979,1.113 0.084,1.086 -0.305,0.441 -0.75,0.967 -0.444,0.525 -0.225,0.741 -0.712,0.842 -0.488,0.105 -0.823,0.771 -0.323,1.35 0.497,0.577 0.71,1.145 1.081,1.276 0,0 0.98,0.448 -0.313,0.131 -1.294,-0.316 -3.174,-2.944 -3.61,-4.88 -0.436,-1.935 -0.787,-3.52 -1.6,-4.031 -0.813,-0.511 -1.443,-3.283 -1.438,-4.016 0,-0.733 0.534,-2.042 0.598,-2.165 0.067,-0.121 -0.103,-1.056 -0.359,-0.678 -0.255,0.379 -0.718,-1.417 -0.761,-1.766 -0.045,-0.349 -0.573,-0.966 -0.763,-1.668 -0.191,-0.701 -0.753,-0.76 -0.44,-2.295 0.04,-0.206 0.071,-0.356 0.094,-0.467 0.073,-0.408 0.149,-0.957 -0.078,-0.428 0,0 -0.445,0.375 0.281,-1.126 l 0.155,-0.929 c 0,0 2.509,-6.4 10.437,-9.291 0,0 -0.301,0.451 1.021,0.276 1.321,-0.174 5.272,-1.564 5.304,-0.546 0,0.004 0.724,2.403 -0.607,3.1 z m 18.903,11.62 c -0.067,-1.267 -0.757,-1.916 -1.07,-2.421 -0.313,-0.502 -0.27,-0.266 -0.929,-0.2 -0.66,0.061 0.355,0.899 0.483,2.033 0.126,1.133 -0.193,0.417 -0.614,1.579 -0.42,1.16 -0.611,1.332 -0.045,0.968 0.564,-0.361 0.459,0.854 0.286,2.08 -0.174,1.227 -0.265,1.068 -0.899,2.134 -0.635,1.063 -0.376,2.777 -0.287,3.705 0.092,0.929 -0.386,0.358 -1.081,1.376 -0.693,1.015 -0.231,0.258 -0.845,1.464 -0.614,1.206 -0.378,0.328 -0.897,0.954 -0.519,0.623 -0.771,1.089 -1.563,1.608 -0.791,0.52 -0.816,0.532 -1.584,0.354 -0.77,-0.175 -0.124,-0.443 -0.071,-1.442 0.051,-0.999 -0.124,-1.308 -0.489,-2.333 -0.366,-1.025 0.402,-0.912 0.581,-2.426 0.176,-1.512 -0.659,-1.266 -1.07,-1.933 -0.41,-0.667 0.101,-0.708 -0.229,-0.944 -0.329,-0.238 -0.528,-0.315 -0.859,-0.568 -0.333,-0.258 -0.556,-0.209 -1.531,0.059 -0.974,0.266 -1.57,0.602 -3.039,0.314 -1.467,-0.29 -0.617,-0.921 -1.413,-1.434 -0.794,-0.51 -0.62,-2.011 -0.62,-2.011 0,0 -0.01,-0.111 0.023,-1.267 0.035,-1.156 0.798,-1.365 1.164,-1.757 0.369,-0.389 0.353,-0.974 0.751,-1.526 0.401,-0.552 0.441,-0.326 1.313,-0.709 0.869,-0.379 0.689,-0.241 1.239,-0.535 0.55,-0.292 1.05,-0.203 1.702,-0.321 0.655,-0.117 0.683,0.349 0.75,0.724 0.069,0.374 0.35,0.305 1.422,0.679 1.074,0.374 0.638,-0.173 0.872,-0.598 0.228,-0.425 0.744,-0.042 1.118,0.002 0.37,0.044 1.289,-0.292 1.375,-0.83 0.085,-0.539 -0.292,-0.343 -1.093,-0.468 -0.796,-0.128 -0.407,0.029 -1.183,-0.397 -0.776,-0.424 0.183,0.19 -0.331,0.592 -0.509,0.399 -0.604,-0.497 -1.151,-1.104 -0.548,-0.605 -0.701,-0.424 -1.311,-0.695 -0.611,-0.273 -0.04,0.224 0.188,0.562 0.229,0.341 0.806,0.165 1.1,0.358 0.295,0.191 -0.176,0.406 -0.125,0.725 0.05,0.317 -0.156,0.368 -0.623,0.453 -0.468,0.085 -0.159,-0.375 -0.065,-0.729 0.097,-0.352 -0.472,-0.455 -0.915,-0.688 -0.441,-0.231 -0.961,0.174 -1.608,0.267 -0.647,0.096 -0.75,1.199 -1.205,1.601 -0.452,0.401 -0.859,0.456 -1.687,-0.777 -0.825,-1.233 0.6,-1.182 1.48,-1.141 0.88,0.041 0.453,-0.56 -0.156,-0.873 -0.608,-0.314 -0.055,-0.451 -0.247,-0.726 -0.192,-0.273 -0.704,-0.15 -0.751,-0.474 -0.041,-0.325 -0.218,-0.216 -0.954,-0.119 -0.733,0.098 0.082,-0.232 0.384,-1.146 0.303,-0.913 0.094,-0.407 0.59,-0.883 0.491,-0.476 0.307,0.13 0.541,0.841 0.234,0.714 0.55,0.533 1.162,0.788 0.609,0.255 0.283,-0.349 0.727,-0.751 0.442,-0.401 -0.191,-0.34 -0.555,-0.844 -0.364,-0.504 -0.687,-0.51 -0.893,-0.774 -0.207,-0.265 0.344,-1.125 0.115,-1.565 -0.227,-0.438 -0.324,-0.721 -0.047,-1.367 0.275,-0.644 0.931,0.006 1.551,0.191 0.615,0.188 0.356,0.07 0.968,0.006 0.612,-0.063 0.205,-0.344 -0.377,-1.125 -0.581,-0.783 -1.809,-0.954 -2.725,-1.196 -0.912,-0.238 -1.28,-0.571 -1.28,-0.571 l -0.086,-0.038 c -0.086,-0.039 0.092,-0.155 0.092,-0.155 3.4,0.255 6.057,1.628 6.057,1.628 10.008,4.719 10.775,14.558 10.775,14.558 0,0 -0.237,0.525 -0.306,-0.742 z" /></g></svg>