<?xml version="1.0" encoding="UTF-8" standalone="no"?>
<!-- Generator: Adobe Illustrator 16.0.0, SVG Export Plug-In . SVG Version: 6.00 Build 0)  -->

<svg
   xmlns:dc="http://purl.org/dc/elements/1.1/"
   xmlns:cc="http://creativecommons.org/ns#"
   xmlns:rdf="http://www.w3.org/1999/02/22-rdf-syntax-ns#"
   xmlns:svg="http://www.w3.org/2000/svg"
   xmlns="http://www.w3.org/2000/svg"
   xmlns:sodipodi="http://sodipodi.sourceforge.net/DTD/sodipodi-0.dtd"
   xmlns:inkscape="http://www.inkscape.org/namespaces/inkscape"
   version="1.1"
   id="Layer_1"
   x="0px"
   y="0px"
   width="107.258px"
   height="90.812px"
   viewBox="0 0 107.258 90.812"
   enable-background="new 0 0 107.258 90.812"
   xml:space="preserve"
   sodipodi:docname="startups.svg"
   inkscape:version="0.92.0 r15299"><metadata
     id="metadata21"><rdf:RDF><cc:Work
         rdf:about=""><dc:format>image/svg+xml</dc:format><dc:type
           rdf:resource="http://purl.org/dc/dcmitype/StillImage" /></cc:Work></rdf:RDF></metadata><defs
     id="defs19" /><sodipodi:namedview
     pagecolor="#ffffff"
     bordercolor="#666666"
     borderopacity="1"
     objecttolerance="10"
     gridtolerance="10"
     guidetolerance="10"
     inkscape:pageopacity="0"
     inkscape:pageshadow="2"
     inkscape:window-width="1920"
     inkscape:window-height="1017"
     id="namedview17"
     showgrid="false"
     inkscape:zoom="7.3504474"
     inkscape:cx="51.494952"
     inkscape:cy="46.535672"
     inkscape:window-x="-8"
     inkscape:window-y="-8"
     inkscape:window-maximized="1"
     inkscape:current-layer="g14" /><g
     id="g14"><circle
       cx="54.240208"
       cy="45.177208"
       r="44.246021"
       id="circle4"
       style="fill:#3b4ba0;fill-opacity:1;stroke-width:1.25218689" /><path
       style="fill:#ffffff;stroke-width:1.25218689"
       inkscape:connector-curvature="0"
       id="path6"
       d="M 61.120975,60.557819 H 47.581078 c -1.253439,0 -2.266458,1.016776 -2.266458,2.268963 0,1.250934 1.013019,2.266458 2.266458,2.266458 h 13.539897 c 1.249682,0 2.26771,-1.015524 2.26771,-2.266458 0,-1.25344 -1.018028,-2.268963 -2.26771,-2.268963 z" /><path
       style="fill:#ffffff;stroke-width:1.25218689"
       inkscape:connector-curvature="0"
       id="path8"
       d="M 61.120975,66.04991 H 47.581078 c -1.253439,0 -2.266458,1.015524 -2.266458,2.267711 0,1.252186 1.013019,2.267711 2.266458,2.267711 h 13.539897 c 1.249682,0 2.26771,-1.015525 2.26771,-2.267711 0,-1.252187 -1.018028,-2.267711 -2.26771,-2.267711 z" /><path
       style="fill:#ffffff;stroke-width:1.25218689"
       inkscape:connector-curvature="0"
       id="path10"
       d="m 54.351652,20.704468 c -9.689421,0 -17.543137,7.852464 -17.543137,17.540634 0,5.810146 2.826185,10.955382 7.176283,14.148459 v 0.91034 c 0,2.273971 0.742546,4.372636 1.984715,6.080619 h 6.786854 V 47.801791 l -5.016261,-5.20534 c -0.612319,-0.633606 -0.594788,-1.644122 0.03882,-2.255189 0.63486,-0.611067 1.644122,-0.592284 2.257694,0.04257 l 2.71975,2.822429 v -4.961163 c 0,-0.880288 0.711241,-1.594035 1.594034,-1.594035 0.880286,0 1.592781,0.713747 1.592781,1.594035 v 4.961163 l 2.719749,-2.822429 c 0.614825,-0.634858 1.622835,-0.653641 2.257694,-0.04257 0.632354,0.609815 0.652389,1.621583 0.03882,2.255189 l -5.016261,5.20534 V 59.38452 h 6.789358 c 1.239664,-1.707983 1.982211,-3.806648 1.982211,-6.080619 v -0.91034 c 4.348845,-3.193077 7.175031,-8.338313 7.175031,-14.148459 0.0025,-9.686918 -7.851212,-17.540634 -17.53813,-17.540634 z" /></g></svg>